{
  "source": "C:\\Users\\Peter\\Desktop\\stuff\\MIUN\\quantitative_research\\video_compression\\videos\\BVI-HD\\BVI-HD_CDVL_videos\\ORIG\\Surfers_1920x1080_30fps.mp4",
  "output": "C:\\Users\\Peter\\Desktop\\stuff\\MIUN\\quantitative_research\\video_compression\\compressed_videos\\BVI-HD\\h264\\1\\Surfers_1920x1080_30fps_h264.mp4",
  "codec": "h264",
  "ok": "Input #0, mov,mp4,m4a,3gp,3g2,mj2, from 'C:\\Users\\Peter\\Desktop\\stuff\\MIUN\\quantitative_research\\video_compression\\videos\\BVI-HD\\BVI-HD_CDVL_videos\\ORIG\\Surfers_1920x1080_30fps.mp4':\n  Metadata:\n    major_brand     : isom\n    minor_version   : 512\n    compatible_brands: isomiso2avc1mp41\n    encoder         : Lavf54.28.101\n  Duration: 00:00:05.00, start: 0.000000, bitrate: 232762 kb/s\n  Stream #0:0[0x1](und): Video: h264 (High 4:4:4 Predictive) (avc1 / 0x31637661), yuv420p(progressive), 1920x1080, 232759 kb/s, 30 fps, 30 tbr, 30 tbn (default)\n    Metadata:\n      handler_name    : VideoHandler\n      vendor_id       : [0][0][0][0]\n[out#0/mp4 @ 000002668658abc0] Codec AVOption b:a (set bitrate (in bits/s)) has not been used for any stream. The most likely reason is either wrong type (e.g. a video option with no video streams) or that it is a private option of some decoder which was not actually used for any stream.\nStream mapping:\n  Stream #0:0 -> #0:0 (h264 (native) -> h264 (libx264))\nPress [q] to stop, [?] for help\n[libx264 @ 00000266865c0a40] using cpu capabilities: MMX2 SSE2Fast SSSE3 SSE4.2 AVX FMA3 BMI2 AVX2\n[libx264 @ 00000266865c0a40] profile High, level 5.0, 4:2:0, 8-bit\n[libx264 @ 00000266865c0a40] 264 - core 165 r3222 b35605a - H.264/MPEG-4 AVC codec - Copyleft 2003-2025 - http://www.videolan.org/x264.html - options: cabac=1 ref=5 deblock=1:0:0 analyse=0x3:0x113 me=hex subme=8 psy=1 psy_rd=1.00:0.00 mixed_ref=1 me_range=16 chroma_me=1 trellis=2 8x8dct=1 cqm=0 deadzone=21,11 fast_pskip=1 chroma_qp_offset=-2 threads=18 lookahead_threads=3 sliced_threads=0 nr=0 decimate=1 interlaced=0 bluray_compat=0 constrained_intra=0 bframes=3 b_pyramid=2 b_adapt=1 b_bias=0 direct=3 weightb=1 open_gop=0 weightp=2 keyint=250 keyint_min=25 scenecut=40 intra_refresh=0 rc_lookahead=50 rc=cbr mbtree=1 bitrate=1000 ratetol=1.0 qcomp=0.60 qpmin=0 qpmax=69 qpstep=4 vbv_maxrate=1000 vbv_bufsize=1000 nal_hrd=none filler=0 ip_ratio=1.40 aq=1:1.00\nOutput #0, mp4, to 'C:\\Users\\Peter\\Desktop\\stuff\\MIUN\\quantitative_research\\video_compression\\compressed_videos\\BVI-HD\\h264\\1\\Surfers_1920x1080_30fps_h264.mp4':\n  Metadata:\n    major_brand     : isom\n    minor_version   : 512\n    compatible_brands: isomiso2avc1mp41\n    encoder         : Lavf62.3.100\n  Stream #0:0(und): Video: h264 (avc1 / 0x31637661), yuv420p(tv, progressive), 1920x1080, q=2-31, 1000 kb/s, 30 fps, 15360 tbn (default)\n    Metadata:\n      encoder         : Lavc62.11.100 libx264\n      handler_name    : VideoHandler\n      vendor_id       : [0][0][0][0]\n    Side data:\n      cpb: bitrate max/min/avg: 1000000/0/1000000 buffer size: 1000000 vbv_delay: N/A\nframe=    0 fps=0.0 q=0.0 size=       0KiB time=N/A bitrate=N/A speed=N/A elapsed=0:00:00.51    \nframe=    0 fps=0.0 q=0.0 size=       0KiB time=N/A bitrate=N/A speed=N/A elapsed=0:00:01.09    \nframe=    3 fps=1.9 q=49.0 size=       0KiB time=00:00:00.03 bitrate=  11.5kbits/s speed=0.0206x elapsed=0:00:01.61    \nframe=   20 fps=9.3 q=43.0 size=       0KiB time=00:00:00.60 bitrate=   0.6kbits/s speed=0.279x elapsed=0:00:02.15    \nframe=   48 fps= 18 q=44.0 size=       0KiB time=00:00:01.40 bitrate=   0.3kbits/s speed=0.513x elapsed=0:00:02.73    \nframe=   59 fps= 18 q=44.0 size=       0KiB time=00:00:01.90 bitrate=   0.2kbits/s speed=0.572x elapsed=0:00:03.31    \nframe=   94 fps= 24 q=44.0 size=     256KiB time=00:00:03.06 bitrate= 684.0kbits/s speed=0.798x elapsed=0:00:03.84    \nframe=  147 fps= 34 q=-1.0 size=     512KiB time=00:00:04.83 bitrate= 867.9kbits/s speed=1.11x elapsed=0:00:04.36    \n[mp4 @ 000002668658acc0] Starting second pass: moving the moov atom to the beginning of the file\n[out#0/mp4 @ 000002668658abc0] video:561KiB audio:0KiB subtitle:0KiB other streams:0KiB global headers:0KiB muxing overhead: 0.458310%\nframe=  150 fps= 34 q=-1.0 Lsize=     563KiB time=00:00:04.93 bitrate= 935.2kbits/s speed=1.13x elapsed=0:00:04.36    \n[libx264 @ 00000266865c0a40] frame I:2     Avg QP:40.53  size: 11029\n[libx264 @ 00000266865c0a40] frame P:41    Avg QP:42.20  size:  6608\n[libx264 @ 00000266865c0a40] frame B:107   Avg QP:43.51  size:  2620\n[libx264 @ 00000266865c0a40] consecutive B-frames:  2.7%  4.0%  8.0% 85.3%\n[libx264 @ 00000266865c0a40] mb I  I16..4: 53.6% 46.1%  0.3%\n[libx264 @ 00000266865c0a40] mb P  I16..4:  7.2%  4.1%  0.0%  P16..4: 23.6%  1.5%  0.9%  0.0%  0.0%    skip:62.7%\n[libx264 @ 00000266865c0a40] mb B  I16..4:  0.1%  0.1%  0.0%  B16..8: 26.4%  0.5%  0.0%  direct: 0.1%  skip:72.8%  L0:41.0% L1:58.4% BI: 0.6%\n[libx264 @ 00000266865c0a40] 8x8 transform intra:39.7% inter:97.1%\n[libx264 @ 00000266865c0a40] direct mvs  spatial:91.6% temporal:8.4%\n[libx264 @ 00000266865c0a40] coded y,uvDC,uvAC intra: 8.9% 10.8% 0.1% inter: 2.1% 0.6% 0.0%\n[libx264 @ 00000266865c0a40] i16 v,h,dc,p:  9% 68%  5% 18%\n[libx264 @ 00000266865c0a40] i8 v,h,dc,ddl,ddr,vr,hd,vl,hu:  1% 16% 53%  1%  4%  2% 11%  2% 10%\n[libx264 @ 00000266865c0a40] i4 v,h,dc,ddl,ddr,vr,hd,vl,hu:  6%  8% 14%  8% 13%  9% 15%  6% 19%\n[libx264 @ 00000266865c0a40] i8c dc,h,v,p: 84% 16%  0%  0%\n[libx264 @ 00000266865c0a40] Weighted P-Frames: Y:0.0% UV:0.0%\n[libx264 @ 00000266865c0a40] ref P L0: 49.4%  5.6% 23.9% 10.0% 10.9%  0.2%\n[libx264 @ 00000266865c0a40] ref B L0: 74.9% 17.0%  6.1%  2.0%\n[libx264 @ 00000266865c0a40] ref B L1: 92.2%  7.8%\n[libx264 @ 00000266865c0a40] kb/s:917.29\n",
  "seconds": 4.644030332565308,
  "probe_out": {}
}